<svg width="290" height="37" viewBox="0 0 290 37" fill="none" xmlns="http://www.w3.org/2000/svg">
<path d="M14.48 0.32C16.64 0.32 18.5867 0.666666 20.32 1.36C22.0533 2.05333 23.52 3.04 24.72 4.32C25.92 5.57333 26.84 7.08 27.48 8.84C28.12 10.6 28.44 12.5467 28.44 14.68C28.44 16.76 28.12 18.6933 27.48 20.48C26.84 22.2667 25.92 23.8133 24.72 25.12C23.52 26.4267 22.04 27.4533 20.28 28.2C18.5467 28.92 16.5733 29.2667 14.36 29.24C12.1467 29.24 10.1733 28.88 8.44 28.16C6.73333 27.4133 5.28 26.4 4.08 25.12C2.90667 23.84 2 22.32 1.36 20.56C0.746667 18.8 0.44 16.88 0.44 14.8C0.44 12.6667 0.76 10.72 1.4 8.96C2.06667 7.17333 3 5.64 4.2 4.36C5.42667 3.08 6.90667 2.09333 8.64 1.4C10.3733 0.679999 12.32 0.32 14.48 0.32ZM6.4 14.72C6.4 15.9467 6.56 17.12 6.88 18.24C7.22667 19.3333 7.72 20.3067 8.36 21.16C9.02667 22.0133 9.86667 22.7067 10.88 23.24C11.8933 23.7467 13.08 24.0133 14.44 24.04C15.7467 24.0667 16.9067 23.84 17.92 23.36C18.9333 22.8533 19.7733 22.1733 20.44 21.32C21.1067 20.44 21.6133 19.44 21.96 18.32C22.3067 17.1733 22.48 15.9867 22.48 14.76C22.48 13.56 22.3067 12.4 21.96 11.28C21.64 10.16 21.1467 9.17333 20.48 8.32C19.84 7.44 19.0133 6.74667 18 6.24C16.9867 5.73333 15.8 5.48 14.44 5.48C13.1067 5.48 11.9333 5.73333 10.92 6.24C9.90667 6.74667 9.06667 7.42667 8.4 8.28C7.73333 9.13333 7.22667 10.12 6.88 11.24C6.56 12.3333 6.4 13.4933 6.4 14.72ZM43.7784 25L37.7784 16.28V29H32.1384V7.92H37.9784L44.4584 17.36L50.8584 7.92H56.6584V29H50.9784V16.28L45.1384 25H43.7784ZM70.6838 24.72C71.4838 24.72 72.1638 24.6 72.7238 24.36C73.3104 24.0933 73.7904 23.6667 74.1638 23.08H80.0838C79.7904 24.1733 79.3371 25.12 78.7238 25.92C78.1371 26.72 77.4171 27.3733 76.5638 27.88C75.7371 28.3867 74.8171 28.76 73.8038 29C72.7904 29.2133 71.7238 29.32 70.6037 29.32C67.1904 29.32 64.6038 28.36 62.8438 26.44C61.1104 24.52 60.2438 21.8267 60.2438 18.36C60.2438 16.7867 60.4704 15.3333 60.9238 14C61.4038 12.6667 62.0704 11.52 62.9238 10.56C63.7771 9.57333 64.8304 8.81333 66.0838 8.28C67.3638 7.74667 68.8171 7.48 70.4438 7.48C72.3371 7.48 73.9771 7.81333 75.3638 8.48C76.7504 9.14667 77.8438 10.0667 78.6438 11.24C79.4704 12.3867 80.0171 13.7333 80.2838 15.28C80.5771 16.8267 80.5771 18.48 80.2838 20.24H65.8838C65.9904 21.4933 66.4304 22.56 67.2038 23.44C67.9771 24.2933 69.1371 24.72 70.6838 24.72ZM75.0438 16.36C75.0438 15.6933 74.9238 15.1067 74.6838 14.6C74.4438 14.0667 74.1238 13.64 73.7238 13.32C73.3238 12.9733 72.8438 12.72 72.2838 12.56C71.7504 12.4 71.1904 12.32 70.6037 12.32C69.1904 12.3467 68.0838 12.7333 67.2838 13.48C66.5104 14.2 66.0571 15.16 65.9238 16.36H75.0438ZM100.05 7.92V12.8H89.8097V29H84.1697V7.92H100.05ZM115.769 26.4C114.969 27.4667 113.982 28.2267 112.809 28.68C111.662 29.1333 110.342 29.3467 108.849 29.32C106.902 29.2667 105.276 28.72 103.969 27.68C103.276 27.0933 102.729 26.4 102.329 25.6C101.956 24.7733 101.769 23.8 101.769 22.68C101.796 21.5333 102.049 20.52 102.529 19.64C103.036 18.7333 103.796 17.9867 104.809 17.4C105.662 16.9467 106.622 16.6267 107.689 16.44C108.782 16.2533 109.969 16.16 111.249 16.16H115.569C115.649 14.8533 115.342 13.88 114.649 13.24C113.982 12.5733 113.036 12.2267 111.809 12.2C111.409 12.2 110.996 12.2267 110.569 12.28C110.142 12.3333 109.742 12.44 109.369 12.6C109.022 12.76 108.716 12.9867 108.449 13.28C108.209 13.5467 108.049 13.88 107.969 14.28H102.169C102.302 13 102.649 11.9333 103.209 11.08C103.796 10.2 104.529 9.49333 105.409 8.96C106.289 8.42667 107.262 8.05333 108.329 7.84C109.422 7.6 110.542 7.48 111.689 7.48C112.329 7.48 112.982 7.52 113.649 7.6C114.316 7.65333 114.969 7.78666 115.609 8C116.249 8.18667 116.849 8.45333 117.409 8.8C117.996 9.12 118.542 9.54667 119.049 10.08C119.956 11.12 120.516 12.32 120.729 13.68C120.969 15.0133 121.076 16.32 121.049 17.6V29H115.889L115.769 26.4ZM115.569 19.68H111.449C111.049 19.68 110.596 19.72 110.089 19.8C109.582 19.88 109.142 20.0267 108.769 20.24C108.396 20.4533 108.076 20.7333 107.809 21.08C107.569 21.4267 107.449 21.8533 107.449 22.36C107.449 22.7867 107.529 23.16 107.689 23.48C107.876 23.8 108.102 24.0667 108.369 24.28C108.662 24.4933 109.009 24.6667 109.409 24.8C109.809 24.9067 110.209 24.96 110.609 24.96C111.382 24.9867 112.102 24.8533 112.769 24.56C113.462 24.2667 114.062 23.8533 114.569 23.32C114.889 22.8933 115.129 22.4133 115.289 21.88C115.476 21.32 115.569 20.5867 115.569 19.68ZM138.859 19.72H125.699V15H138.859V19.72ZM142.984 8.68C143.117 7.24 143.45 6.01333 143.984 5C144.517 3.98667 145.224 3.12 146.104 2.4C147.01 1.68 148.05 1.16 149.224 0.839998C150.424 0.493332 151.77 0.32 153.264 0.32C154.464 0.32 155.597 0.453333 156.664 0.719999C157.757 0.959999 158.744 1.37333 159.624 1.96C160.53 2.54666 161.25 3.32 161.784 4.28C162.344 5.24 162.624 6.41333 162.624 7.8C162.624 8.97333 162.33 10.0933 161.744 11.16C161.157 12.2267 160.304 13.0667 159.184 13.68C160.81 14.2133 161.984 15.1067 162.704 16.36C163.424 17.6133 163.757 19.08 163.704 20.76C163.65 22.3067 163.317 23.6133 162.704 24.68C162.09 25.7467 161.304 26.6267 160.344 27.32C159.384 27.9867 158.277 28.48 157.024 28.8C155.77 29.12 154.464 29.28 153.104 29.28C150.09 29.28 147.624 28.6 145.704 27.24C143.784 25.88 142.61 23.72 142.184 20.76H147.904C148.09 21.4267 148.357 21.9733 148.704 22.4C149.077 22.8267 149.49 23.1733 149.944 23.44C150.424 23.68 150.93 23.8533 151.464 23.96C151.997 24.04 152.544 24.08 153.104 24.08C153.744 24.08 154.357 24.0133 154.944 23.88C155.53 23.7467 156.05 23.5333 156.504 23.24C156.957 22.9467 157.317 22.56 157.584 22.08C157.85 21.5733 157.984 20.96 157.984 20.24C157.984 19.7067 157.864 19.2133 157.624 18.76C157.41 18.3067 157.117 17.9733 156.744 17.76C156.264 17.44 155.73 17.24 155.144 17.16C154.584 17.0533 153.997 17 153.384 17H150.544V12.28H152.464C153.157 12.28 153.784 12.2 154.344 12.04C154.904 11.8533 155.41 11.5733 155.864 11.2C156.184 10.9067 156.45 10.5733 156.664 10.2C156.877 9.8 156.984 9.33333 156.984 8.8C156.984 8.16 156.877 7.62667 156.664 7.2C156.45 6.74667 156.157 6.4 155.784 6.16C155.41 5.89333 154.97 5.70667 154.464 5.6C153.957 5.49333 153.424 5.44 152.864 5.44C151.85 5.44 150.957 5.70667 150.184 6.24C149.41 6.74667 148.904 7.56 148.664 8.68H142.984ZM205.344 3L203.184 13.92H201.744L201.784 5.6H194.944L190.584 26.76L195.744 27.56L195.464 29H180.704L180.864 27.68C181.744 27.44 182.637 27.24 183.544 27.08C184.45 26.92 185.384 26.8 186.344 26.72L191.064 5.6H184.104L180.824 13.92H179.344L181.504 3H205.344ZM214.081 29.36C213.014 29.36 212.068 29.0933 211.241 28.56C210.414 28 209.801 27.24 209.401 26.28V25.24C211.134 26.4133 213.321 27.1067 215.961 27.32L214.481 27.64C215.521 27.1067 216.441 26.32 217.241 25.28C218.068 24.2133 218.708 22.9733 219.161 21.56C219.641 20.12 219.921 18.6267 220.001 17.08C220.108 15.5333 219.961 14.0133 219.561 12.52L220.361 13.36C219.774 13.0133 219.201 12.7067 218.641 12.44C218.108 12.1467 217.521 11.9467 216.881 11.84L217.801 11.68C216.388 12.7467 215.041 14.2933 213.761 16.32C212.481 18.3467 211.241 20.8933 210.041 23.96L209.281 23.32C210.508 20.0933 211.774 17.36 213.081 15.12C214.414 12.8533 215.908 10.9733 217.561 9.48C219.428 9.26667 220.868 9.74667 221.881 10.92C222.894 12.0667 223.401 13.8533 223.401 16.28C223.401 18.0133 223.148 19.6667 222.641 21.24C222.161 22.8133 221.481 24.2133 220.601 25.44C219.748 26.64 218.761 27.6 217.641 28.32C216.521 29.0133 215.334 29.36 214.081 29.36ZM201.761 36.72L201.921 35.56C202.801 35.16 203.534 34.8533 204.121 34.64C204.734 34.4533 205.388 34.3067 206.081 34.2L211.681 35.52L211.441 36.72H201.761ZM204.041 36.72L209.721 10.76L210.281 12.48C209.454 12.5067 208.681 12.56 207.961 12.64C207.268 12.6933 206.588 12.7867 205.921 12.92C206.081 12.2 206.361 11.5867 206.761 11.08C207.188 10.5467 207.668 10.1467 208.201 9.88C208.761 9.58667 209.334 9.44 209.921 9.44C210.561 9.44 211.134 9.61333 211.641 9.96C212.174 10.3067 212.588 10.84 212.881 11.56L211.041 18.76L211.361 18.92L207.681 36.72H204.041ZM229.947 27.96L229.187 26.28C230.014 26.2533 230.787 26.1867 231.507 26.08C232.254 25.9733 232.974 25.8267 233.667 25.64C233.48 26.36 233.16 27 232.707 27.56C232.28 28.0933 231.787 28.52 231.227 28.84C230.667 29.1333 230.094 29.28 229.507 29.28C228.84 29.28 228.254 29.0667 227.747 28.64C227.24 28.2133 226.854 27.6267 226.587 26.88L230.107 10.76L230.667 12.48C229.76 12.5067 228.974 12.5467 228.307 12.6C227.64 12.6533 226.974 12.76 226.307 12.92C226.467 12.2 226.747 11.5733 227.147 11.04C227.574 10.5067 228.054 10.1067 228.587 9.84C229.147 9.54667 229.72 9.4 230.307 9.4C230.92 9.4 231.48 9.58667 231.987 9.96C232.52 10.3067 232.947 10.84 233.267 11.56L229.947 27.96ZM233.267 0.399999C233.747 0.853333 234.16 1.37333 234.507 1.96C234.854 2.54666 235.067 3.16 235.147 3.8C234.774 4.25333 234.28 4.66667 233.667 5.04C233.054 5.38667 232.44 5.6 231.827 5.68C231.347 5.28 230.934 4.78667 230.587 4.2C230.24 3.58667 230 2.96 229.867 2.32C230.294 1.84 230.8 1.42666 231.387 1.08C232 0.733332 232.627 0.506666 233.267 0.399999ZM242.893 29.36C240.893 29.36 239.319 28.6133 238.173 27.12C237.026 25.6267 236.453 23.5867 236.453 21C236.453 18.76 236.866 16.76 237.693 15C238.546 13.24 239.706 11.8533 241.173 10.84C242.639 9.8 244.293 9.28 246.133 9.28C247.013 9.28 247.879 9.38667 248.733 9.6C249.586 9.78667 250.306 10.0533 250.893 10.4L249.653 13.08C247.759 12.2533 245.613 11.7733 243.213 11.64L245.133 10.92C244.066 11.5867 243.133 12.5467 242.333 13.8C241.533 15.0267 240.919 16.4 240.493 17.92C240.093 19.4133 239.893 20.8933 239.893 22.36C239.893 23.0533 239.959 23.7333 240.093 24.4C240.253 25.04 240.466 25.64 240.733 26.2L240.053 25C240.613 25.4267 241.199 25.76 241.813 26C242.453 26.24 243.079 26.36 243.693 26.36C244.653 26.36 245.559 26.1067 246.413 25.6C247.266 25.0667 248.079 24.2933 248.853 23.28L249.493 23.6C249.093 25.3333 248.279 26.7333 247.053 27.8C245.853 28.84 244.466 29.36 242.893 29.36ZM248.293 16.56L247.453 10.36L250.893 10.4L249.773 16.56H248.293ZM264.584 28.16L260.344 18.92L262.904 17.08L268.144 27.56L266.464 26.16C266.81 26.16 267.144 26.1467 267.464 26.12C267.784 26.0933 268.144 26.0533 268.544 26C268.944 25.92 269.437 25.84 270.024 25.76C269.917 26.56 269.664 27.2267 269.264 27.76C268.89 28.2933 268.437 28.68 267.904 28.92C267.37 29.16 266.81 29.2133 266.224 29.08C265.637 28.9733 265.09 28.6667 264.584 28.16ZM253.024 29L257.024 10.76L257.544 12.48C256.824 12.5067 256.157 12.56 255.544 12.64C254.93 12.6933 254.17 12.7867 253.264 12.92C253.424 12.1733 253.704 11.5467 254.104 11.04C254.53 10.5333 255.01 10.1467 255.544 9.88C256.104 9.58667 256.664 9.44 257.224 9.44C257.837 9.44 258.41 9.61333 258.944 9.96C259.477 10.3067 259.89 10.84 260.184 11.56L256.664 29H253.024ZM257.024 20L257.504 17.72H262.624L262.104 20H257.024ZM262.104 19.2L260.344 18.92C261.81 16.8667 263.05 15.2 264.064 13.92C265.104 12.64 266.024 11.6667 266.824 11C267.624 10.3067 268.397 9.86667 269.144 9.68C269.89 9.46667 270.677 9.41333 271.504 9.52L270.504 14.2L266.184 12.84L268.384 11.96C267.717 12.52 267.077 13.12 266.464 13.76C265.877 14.4 265.237 15.16 264.544 16.04C263.85 16.8933 263.037 17.9467 262.104 19.2ZM278.034 29.16C276.167 29.3733 274.714 28.9067 273.674 27.76C272.661 26.5867 272.154 24.7867 272.154 22.36C272.154 20.6267 272.394 18.9733 272.874 17.4C273.381 15.8267 274.074 14.44 274.954 13.24C275.834 12.0133 276.834 11.0533 277.954 10.36C279.074 9.66667 280.247 9.32 281.474 9.32C282.567 9.32 283.527 9.58667 284.354 10.12C285.181 10.6533 285.794 11.4 286.194 12.36L286.154 13.4C284.447 12.2267 282.287 11.5333 279.674 11.32L281.074 11.04C280.034 11.5467 279.114 12.3333 278.314 13.4C277.514 14.44 276.874 15.68 276.394 17.12C275.914 18.5333 275.634 20.0133 275.554 21.56C275.474 23.1067 275.634 24.6267 276.034 26.12L275.274 25.28C275.834 25.6267 276.381 25.9467 276.914 26.24C277.474 26.5067 278.074 26.6933 278.714 26.8L277.794 26.96C279.207 25.8933 280.541 24.3467 281.794 22.32C283.074 20.2933 284.327 17.7467 285.554 14.68L286.314 15.32C285.087 18.5467 283.807 21.2933 282.474 23.56C281.167 25.8 279.687 27.6667 278.034 29.16ZM285.914 27.96L285.234 26.28C285.954 26.2533 286.661 26.1867 287.354 26.08C288.074 25.9467 288.834 25.8 289.634 25.64C289.447 26.36 289.141 27 288.714 27.56C288.287 28.0933 287.794 28.5067 287.234 28.8C286.674 29.0933 286.101 29.24 285.514 29.24C284.874 29.24 284.287 29.04 283.754 28.64C283.247 28.2133 282.861 27.6267 282.594 26.88L284.554 19.92L284.194 19.76L286.474 9.64H289.754L285.914 27.96Z" fill="#00284F"/>
</svg>
